<mxfile host="app.diagrams.net" modified="2021-09-27T06:26:35.002Z" agent="5.0 (Windows NT 10.0; Win64; x64) AppleWebKit/537.36 (KHTML, like Gecko) Chrome/94.0.4606.61 Safari/537.36" etag="BQHdYD3pga3X4oh8DKTR" version="14.7.3" type="github">
  <diagram id="5TVpf9pFSXQtdb6u9UF1" name="Page-1">
    <mxGraphModel dx="1422" dy="794" grid="1" gridSize="10" guides="1" tooltips="1" connect="1" arrows="1" fold="1" page="0" pageScale="1" pageWidth="827" pageHeight="1169" math="0" shadow="0">
      <root>
        <mxCell id="0" />
        <mxCell id="1" parent="0" />
        <mxCell id="Q7LAkUCVUbcERlkNP3Z0-7" value="" style="rounded=0;whiteSpace=wrap;html=1;" vertex="1" parent="1">
          <mxGeometry x="160" y="380" width="160" height="20" as="geometry" />
        </mxCell>
        <mxCell id="Q7LAkUCVUbcERlkNP3Z0-8" style="edgeStyle=orthogonalEdgeStyle;rounded=0;orthogonalLoop=1;jettySize=auto;html=1;exitX=0.5;exitY=1;exitDx=0;exitDy=0;" edge="1" parent="1" source="Q7LAkUCVUbcERlkNP3Z0-7" target="Q7LAkUCVUbcERlkNP3Z0-7">
          <mxGeometry relative="1" as="geometry" />
        </mxCell>
        <mxCell id="Q7LAkUCVUbcERlkNP3Z0-9" value="" style="rounded=0;whiteSpace=wrap;html=1;" vertex="1" parent="1">
          <mxGeometry x="320" y="380" width="40" height="20" as="geometry" />
        </mxCell>
        <mxCell id="Q7LAkUCVUbcERlkNP3Z0-10" value="" style="shape=partialRectangle;whiteSpace=wrap;html=1;top=0;bottom=0;fillColor=none;" vertex="1" parent="1">
          <mxGeometry x="160" y="430" width="40" height="10" as="geometry" />
        </mxCell>
        <mxCell id="Q7LAkUCVUbcERlkNP3Z0-11" value="" style="shape=partialRectangle;whiteSpace=wrap;html=1;top=0;bottom=0;fillColor=none;" vertex="1" parent="1">
          <mxGeometry x="200" y="430" width="40" height="10" as="geometry" />
        </mxCell>
        <mxCell id="Q7LAkUCVUbcERlkNP3Z0-12" value="" style="shape=partialRectangle;whiteSpace=wrap;html=1;top=0;bottom=0;fillColor=none;" vertex="1" parent="1">
          <mxGeometry x="240" y="430" width="40" height="10" as="geometry" />
        </mxCell>
        <mxCell id="Q7LAkUCVUbcERlkNP3Z0-13" value="" style="shape=partialRectangle;whiteSpace=wrap;html=1;top=0;bottom=0;fillColor=none;" vertex="1" parent="1">
          <mxGeometry x="280" y="430" width="40" height="10" as="geometry" />
        </mxCell>
        <mxCell id="Q7LAkUCVUbcERlkNP3Z0-14" value="" style="shape=partialRectangle;whiteSpace=wrap;html=1;top=0;bottom=0;fillColor=none;" vertex="1" parent="1">
          <mxGeometry x="320" y="430" width="40" height="10" as="geometry" />
        </mxCell>
        <mxCell id="Q7LAkUCVUbcERlkNP3Z0-15" value="" style="shape=partialRectangle;whiteSpace=wrap;html=1;top=0;bottom=0;fillColor=none;" vertex="1" parent="1">
          <mxGeometry x="360" y="430" width="40" height="10" as="geometry" />
        </mxCell>
        <mxCell id="Q7LAkUCVUbcERlkNP3Z0-16" value="" style="shape=partialRectangle;whiteSpace=wrap;html=1;top=0;bottom=0;fillColor=none;" vertex="1" parent="1">
          <mxGeometry x="400" y="430" width="40" height="10" as="geometry" />
        </mxCell>
        <mxCell id="Q7LAkUCVUbcERlkNP3Z0-17" value="" style="shape=partialRectangle;whiteSpace=wrap;html=1;top=0;bottom=0;fillColor=none;" vertex="1" parent="1">
          <mxGeometry x="440" y="430" width="40" height="10" as="geometry" />
        </mxCell>
        <mxCell id="Q7LAkUCVUbcERlkNP3Z0-18" value="" style="shape=partialRectangle;whiteSpace=wrap;html=1;top=0;bottom=0;fillColor=none;" vertex="1" parent="1">
          <mxGeometry x="520" y="430" width="40" height="10" as="geometry" />
        </mxCell>
        <mxCell id="Q7LAkUCVUbcERlkNP3Z0-19" value="" style="shape=partialRectangle;whiteSpace=wrap;html=1;top=0;bottom=0;fillColor=none;" vertex="1" parent="1">
          <mxGeometry x="480" y="430" width="40" height="10" as="geometry" />
        </mxCell>
        <mxCell id="Q7LAkUCVUbcERlkNP3Z0-30" value="" style="shape=partialRectangle;whiteSpace=wrap;html=1;top=0;bottom=0;fillColor=none;" vertex="1" parent="1">
          <mxGeometry x="560" y="430" width="40" height="10" as="geometry" />
        </mxCell>
        <mxCell id="Q7LAkUCVUbcERlkNP3Z0-31" value="" style="shape=partialRectangle;whiteSpace=wrap;html=1;top=0;bottom=0;fillColor=none;" vertex="1" parent="1">
          <mxGeometry x="600" y="430" width="40" height="10" as="geometry" />
        </mxCell>
        <mxCell id="Q7LAkUCVUbcERlkNP3Z0-32" value="" style="shape=partialRectangle;whiteSpace=wrap;html=1;top=0;bottom=0;fillColor=none;" vertex="1" parent="1">
          <mxGeometry x="640" y="430" width="40" height="10" as="geometry" />
        </mxCell>
        <mxCell id="Q7LAkUCVUbcERlkNP3Z0-33" value="" style="shape=partialRectangle;whiteSpace=wrap;html=1;top=0;bottom=0;fillColor=none;" vertex="1" parent="1">
          <mxGeometry x="680" y="430" width="40" height="10" as="geometry" />
        </mxCell>
        <mxCell id="Q7LAkUCVUbcERlkNP3Z0-34" value="" style="shape=partialRectangle;whiteSpace=wrap;html=1;top=0;bottom=0;fillColor=none;" vertex="1" parent="1">
          <mxGeometry x="720" y="430" width="40" height="10" as="geometry" />
        </mxCell>
        <mxCell id="Q7LAkUCVUbcERlkNP3Z0-35" value="" style="shape=partialRectangle;whiteSpace=wrap;html=1;top=0;bottom=0;fillColor=none;" vertex="1" parent="1">
          <mxGeometry x="760" y="430" width="40" height="10" as="geometry" />
        </mxCell>
        <mxCell id="Q7LAkUCVUbcERlkNP3Z0-36" value="" style="shape=partialRectangle;whiteSpace=wrap;html=1;top=0;bottom=0;fillColor=none;" vertex="1" parent="1">
          <mxGeometry x="800" y="430" width="40" height="10" as="geometry" />
        </mxCell>
        <mxCell id="Q7LAkUCVUbcERlkNP3Z0-37" value="" style="shape=partialRectangle;whiteSpace=wrap;html=1;top=0;bottom=0;fillColor=none;" vertex="1" parent="1">
          <mxGeometry x="840" y="430" width="40" height="10" as="geometry" />
        </mxCell>
        <mxCell id="Q7LAkUCVUbcERlkNP3Z0-38" value="" style="shape=partialRectangle;whiteSpace=wrap;html=1;top=0;bottom=0;fillColor=none;" vertex="1" parent="1">
          <mxGeometry x="920" y="430" width="40" height="10" as="geometry" />
        </mxCell>
        <mxCell id="Q7LAkUCVUbcERlkNP3Z0-39" value="" style="shape=partialRectangle;whiteSpace=wrap;html=1;top=0;bottom=0;fillColor=none;" vertex="1" parent="1">
          <mxGeometry x="880" y="430" width="40" height="10" as="geometry" />
        </mxCell>
        <mxCell id="Q7LAkUCVUbcERlkNP3Z0-40" value="" style="endArrow=none;html=1;exitX=0;exitY=1;exitDx=0;exitDy=0;entryX=1;entryY=1;entryDx=0;entryDy=0;" edge="1" parent="1" source="Q7LAkUCVUbcERlkNP3Z0-10" target="Q7LAkUCVUbcERlkNP3Z0-38">
          <mxGeometry width="50" height="50" relative="1" as="geometry">
            <mxPoint x="540" y="410" as="sourcePoint" />
            <mxPoint x="590" y="360" as="targetPoint" />
          </mxGeometry>
        </mxCell>
        <mxCell id="Q7LAkUCVUbcERlkNP3Z0-41" value="&lt;font style=&quot;font-size: 20px&quot;&gt;0&lt;/font&gt;" style="text;html=1;strokeColor=none;fillColor=none;align=center;verticalAlign=middle;whiteSpace=wrap;rounded=0;" vertex="1" parent="1">
          <mxGeometry x="140" y="450" width="40" height="20" as="geometry" />
        </mxCell>
        <mxCell id="Q7LAkUCVUbcERlkNP3Z0-42" value="&lt;font style=&quot;font-size: 20px&quot;&gt;0&lt;/font&gt;" style="text;html=1;strokeColor=none;fillColor=none;align=center;verticalAlign=middle;whiteSpace=wrap;rounded=0;" vertex="1" parent="1">
          <mxGeometry x="940" y="450" width="40" height="20" as="geometry" />
        </mxCell>
        <mxCell id="Q7LAkUCVUbcERlkNP3Z0-43" value="&lt;font style=&quot;font-size: 20px&quot;&gt;5&lt;/font&gt;" style="text;html=1;strokeColor=none;fillColor=none;align=center;verticalAlign=middle;whiteSpace=wrap;rounded=0;" vertex="1" parent="1">
          <mxGeometry x="340" y="450" width="40" height="20" as="geometry" />
        </mxCell>
        <mxCell id="Q7LAkUCVUbcERlkNP3Z0-44" value="&lt;font style=&quot;font-size: 20px&quot;&gt;10&lt;/font&gt;" style="text;html=1;strokeColor=none;fillColor=none;align=center;verticalAlign=middle;whiteSpace=wrap;rounded=0;" vertex="1" parent="1">
          <mxGeometry x="540" y="450" width="40" height="20" as="geometry" />
        </mxCell>
        <mxCell id="Q7LAkUCVUbcERlkNP3Z0-45" value="&lt;font style=&quot;font-size: 20px&quot;&gt;15&lt;/font&gt;" style="text;html=1;strokeColor=none;fillColor=none;align=center;verticalAlign=middle;whiteSpace=wrap;rounded=0;" vertex="1" parent="1">
          <mxGeometry x="740" y="450" width="40" height="20" as="geometry" />
        </mxCell>
      </root>
    </mxGraphModel>
  </diagram>
</mxfile>
